mtllib elevator_ps1.mtl
v -0.9 0 -0.8
v -0.9 0 -0.75
v -0.9 2.2 -0.8
v -0.9 2.2 -0.75
v 0.9 0 -0.8
v 0.9 0 -0.75
v 0.9 2.2 -0.8
v 0.9 2.2 -0.75
v -0.9 0 -0.8
v -0.9 0 0.8
v -0.9 2.2 -0.8
v -0.9 2.2 0.8
v -0.85 0 -0.8
v -0.85 0 0.8
v -0.85 2.2 -0.8
v -0.85 2.2 0.8
v 0.85 0 -0.8
v 0.85 0 0.8
v 0.85 2.2 -0.8
v 0.85 2.2 0.8
v 0.9 0 -0.8
v 0.9 0 0.8
v 0.9 2.2 -0.8
v 0.9 2.2 0.8
v -0.9 2.1500000000000004 -0.8
v -0.9 2.1500000000000004 0.8
v -0.9 2.2 -0.8
v -0.9 2.2 0.8
v 0.9 2.1500000000000004 -0.8
v 0.9 2.1500000000000004 0.8
v 0.9 2.2 -0.8
v 0.9 2.2 0.8
v -0.9 0 -0.8
v -0.9 0 0.8
v -0.9 0.05 -0.8
v -0.9 0.05 0.8
v 0.9 0 -0.8
v 0.9 0 0.8
v 0.9 0.05 -0.8
v 0.9 0.05 0.8
v -0.8 0 0.75
v -0.8 0 0.8
v -0.8 0.1 0.75
v -0.8 0.1 0.8
v 0.8 0 0.75
v 0.8 0 0.8
v 0.8 0.1 0.75
v 0.8 0.1 0.8
v -0.9 0 0.75
v -0.9 0 0.8
v -0.9 2.2 0.75
v -0.9 2.2 0.8
v -0.8 0 0.75
v -0.8 0 0.8
v -0.8 2.2 0.75
v -0.8 2.2 0.8
v 0.8 0 0.75
v 0.8 0 0.8
v 0.8 2.2 0.75
v 0.8 2.2 0.8
v 0.9 0 0.75
v 0.9 0 0.8
v 0.9 2.2 0.75
v 0.9 2.2 0.8
v -0.8 0 0.75
v -0.8 0 0.8
v -0.8 0.05 0.75
v -0.8 0.05 0.8
v 0.8 0 0.75
v 0.8 0 0.8
v 0.8 0.05 0.75
v 0.8 0.05 0.8
v -0.8 0.02 0.77
v -0.8 0.02 0.8
v -0.8 2.02 0.77
v -0.8 2.02 0.8
v 0.0 0.02 0.77
v 0.0 0.02 0.8
v 0.0 2.02 0.77
v 0.0 2.02 0.8
v 0.0 0.02 0.77
v 0.0 0.02 0.8
v 0.0 2.02 0.77
v 0.0 2.02 0.8
v 0.8 0.02 0.77
v 0.8 0.02 0.8
v 0.8 2.02 0.77
v 0.8 2.02 0.8
v -0.02 0.02 0.769
v -0.02 0.02 0.798
v -0.02 2.02 0.769
v -0.02 2.02 0.798
v 0.02 0.02 0.769
v 0.02 0.02 0.798
v 0.02 2.02 0.769
v 0.02 2.02 0.798
v -0.83 0.9 0.55
v -0.83 0.9 0.56
v -0.83 1.8 0.55
v -0.83 1.8 0.56
v -0.6299999999999999 0.9 0.55
v -0.6299999999999999 0.9 0.56
v -0.6299999999999999 1.8 0.55
v -0.6299999999999999 1.8 0.56
v -0.7999999999999999 1.7 0.555
v -0.7999999999999999 1.7 0.5650000000000001
v -0.7999999999999999 1.77 0.555
v -0.7999999999999999 1.77 0.5650000000000001
v -0.73 1.7 0.555
v -0.73 1.7 0.5650000000000001
v -0.73 1.77 0.555
v -0.73 1.77 0.5650000000000001
v -0.7999999999999999 1.605 0.555
v -0.7999999999999999 1.605 0.5650000000000001
v -0.7999999999999999 1.675 0.555
v -0.7999999999999999 1.675 0.5650000000000001
v -0.73 1.605 0.555
v -0.73 1.605 0.5650000000000001
v -0.73 1.675 0.555
v -0.73 1.675 0.5650000000000001
v -0.7999999999999999 1.51 0.555
v -0.7999999999999999 1.51 0.5650000000000001
v -0.7999999999999999 1.58 0.555
v -0.7999999999999999 1.58 0.5650000000000001
v -0.73 1.51 0.555
v -0.73 1.51 0.5650000000000001
v -0.73 1.58 0.555
v -0.73 1.58 0.5650000000000001
v -0.7999999999999999 1.415 0.555
v -0.7999999999999999 1.415 0.5650000000000001
v -0.7999999999999999 1.485 0.555
v -0.7999999999999999 1.485 0.5650000000000001
v -0.73 1.415 0.555
v -0.73 1.415 0.5650000000000001
v -0.73 1.485 0.555
v -0.73 1.485 0.5650000000000001
v -0.7999999999999999 1.3199999999999998 0.555
v -0.7999999999999999 1.3199999999999998 0.5650000000000001
v -0.7999999999999999 1.39 0.555
v -0.7999999999999999 1.39 0.5650000000000001
v -0.73 1.3199999999999998 0.555
v -0.73 1.3199999999999998 0.5650000000000001
v -0.73 1.39 0.555
v -0.73 1.39 0.5650000000000001
v -0.7999999999999999 1.225 0.555
v -0.7999999999999999 1.225 0.5650000000000001
v -0.7999999999999999 1.2950000000000002 0.555
v -0.7999999999999999 1.2950000000000002 0.5650000000000001
v -0.73 1.225 0.555
v -0.73 1.225 0.5650000000000001
v -0.73 1.2950000000000002 0.555
v -0.73 1.2950000000000002 0.5650000000000001
v -0.7999999999999999 1.13 0.555
v -0.7999999999999999 1.13 0.5650000000000001
v -0.7999999999999999 1.2 0.555
v -0.7999999999999999 1.2 0.5650000000000001
v -0.73 1.13 0.555
v -0.73 1.13 0.5650000000000001
v -0.73 1.2 0.555
v -0.73 1.2 0.5650000000000001
v -0.7999999999999999 1.035 0.555
v -0.7999999999999999 1.035 0.5650000000000001
v -0.7999999999999999 1.105 0.555
v -0.7999999999999999 1.105 0.5650000000000001
v -0.73 1.035 0.555
v -0.73 1.035 0.5650000000000001
v -0.73 1.105 0.555
v -0.73 1.105 0.5650000000000001
v -0.7999999999999999 0.94 0.555
v -0.7999999999999999 0.94 0.5650000000000001
v -0.7999999999999999 1.01 0.555
v -0.7999999999999999 1.01 0.5650000000000001
v -0.73 0.94 0.555
v -0.73 0.94 0.5650000000000001
v -0.73 1.01 0.555
v -0.73 1.01 0.5650000000000001
v -0.7999999999999999 0.845 0.555
v -0.7999999999999999 0.845 0.5650000000000001
v -0.7999999999999999 0.915 0.555
v -0.7999999999999999 0.915 0.5650000000000001
v -0.73 0.845 0.555
v -0.73 0.845 0.5650000000000001
v -0.73 0.915 0.555
v -0.73 0.915 0.5650000000000001
vt 0 0
vt 1 0
vt 1 1
vt 0 1
vt 0 0
vt 1 0
vt 1 1
vt 0 1
vt 0 0
vt 1 0
vt 1 1
vt 0 1
vt 0 0
vt 1 0
vt 1 1
vt 0 1
vt 0 0
vt 1 0
vt 1 1
vt 0 1
vt 0 0
vt 1 0
vt 1 1
vt 0 1
vt 0 0
vt 1 0
vt 1 1
vt 0 1
vt 0 0
vt 1 0
vt 1 1
vt 0 1
vt 0 0
vt 1 0
vt 1 1
vt 0 1
vt 0 0
vt 1 0
vt 1 1
vt 0 1
vt 0 0
vt 1 0
vt 1 1
vt 0 1
vt 0 0
vt 1 0
vt 1 1
vt 0 1
vt 0 0
vt 1 0
vt 1 1
vt 0 1
vt 0 0
vt 1 0
vt 1 1
vt 0 1
vt 0 0
vt 1 0
vt 1 1
vt 0 1
vt 0 0
vt 1 0
vt 1 1
vt 0 1
vt 0 0
vt 1 0
vt 1 1
vt 0 1
vt 0 0
vt 1 0
vt 1 1
vt 0 1
vt 0 0
vt 1 0
vt 1 1
vt 0 1
vt 0 0
vt 1 0
vt 1 1
vt 0 1
vt 0 0
vt 1 0
vt 1 1
vt 0 1
vt 0 0
vt 1 0
vt 1 1
vt 0 1
vt 0 0
vt 1 0
vt 1 1
vt 0 1
vn -1 0 0
vn 1 0 0
vn 0 -1 0
vn 0 1 0
vn 0 0 -1
vn 0 0 1
vn -1 0 0
vn 1 0 0
vn 0 -1 0
vn 0 1 0
vn 0 0 -1
vn 0 0 1
vn -1 0 0
vn 1 0 0
vn 0 -1 0
vn 0 1 0
vn 0 0 -1
vn 0 0 1
vn -1 0 0
vn 1 0 0
vn 0 -1 0
vn 0 1 0
vn 0 0 -1
vn 0 0 1
vn -1 0 0
vn 1 0 0
vn 0 -1 0
vn 0 1 0
vn 0 0 -1
vn 0 0 1
vn -1 0 0
vn 1 0 0
vn 0 -1 0
vn 0 1 0
vn 0 0 -1
vn 0 0 1
vn -1 0 0
vn 1 0 0
vn 0 -1 0
vn 0 1 0
vn 0 0 -1
vn 0 0 1
vn -1 0 0
vn 1 0 0
vn 0 -1 0
vn 0 1 0
vn 0 0 -1
vn 0 0 1
vn -1 0 0
vn 1 0 0
vn 0 -1 0
vn 0 1 0
vn 0 0 -1
vn 0 0 1
vn -1 0 0
vn 1 0 0
vn 0 -1 0
vn 0 1 0
vn 0 0 -1
vn 0 0 1
vn -1 0 0
vn 1 0 0
vn 0 -1 0
vn 0 1 0
vn 0 0 -1
vn 0 0 1
vn -1 0 0
vn 1 0 0
vn 0 -1 0
vn 0 1 0
vn 0 0 -1
vn 0 0 1
vn -1 0 0
vn 1 0 0
vn 0 -1 0
vn 0 1 0
vn 0 0 -1
vn 0 0 1
vn -1 0 0
vn 1 0 0
vn 0 -1 0
vn 0 1 0
vn 0 0 -1
vn 0 0 1
vn -1 0 0
vn 1 0 0
vn 0 -1 0
vn 0 1 0
vn 0 0 -1
vn 0 0 1
vn -1 0 0
vn 1 0 0
vn 0 -1 0
vn 0 1 0
vn 0 0 -1
vn 0 0 1
vn -1 0 0
vn 1 0 0
vn 0 -1 0
vn 0 1 0
vn 0 0 -1
vn 0 0 1
vn -1 0 0
vn 1 0 0
vn 0 -1 0
vn 0 1 0
vn 0 0 -1
vn 0 0 1
vn -1 0 0
vn 1 0 0
vn 0 -1 0
vn 0 1 0
vn 0 0 -1
vn 0 0 1
vn -1 0 0
vn 1 0 0
vn 0 -1 0
vn 0 1 0
vn 0 0 -1
vn 0 0 1
vn -1 0 0
vn 1 0 0
vn 0 -1 0
vn 0 1 0
vn 0 0 -1
vn 0 0 1
vn -1 0 0
vn 1 0 0
vn 0 -1 0
vn 0 1 0
vn 0 0 -1
vn 0 0 1
vn -1 0 0
vn 1 0 0
vn 0 -1 0
vn 0 1 0
vn 0 0 -1
vn 0 0 1
o Wall_Back
usemtl Mat_Wood
f 1/1/1 2/4/1 4/3/1 3/2/1
f 5/2/2 7/3/2 8/4/2 6/1/2
f 1/1/3 5/2/3 6/3/3 2/4/3
f 3/1/4 4/4/4 8/3/4 7/2/4
f 1/2/5 3/3/5 7/4/5 5/1/5
f 2/1/6 6/2/6 8/3/6 4/4/6
o Wall_Left
usemtl Mat_Wood
f 9/5/7 10/8/7 12/7/7 11/6/7
f 13/6/8 15/7/8 16/8/8 14/5/8
f 9/5/9 13/6/9 14/7/9 10/8/9
f 11/5/10 12/8/10 16/7/10 15/6/10
f 9/6/11 11/7/11 15/8/11 13/5/11
f 10/5/12 14/6/12 16/7/12 12/8/12
o Wall_Right
usemtl Mat_Wood
f 17/9/13 18/12/13 20/11/13 19/10/13
f 21/10/14 23/11/14 24/12/14 22/9/14
f 17/9/15 21/10/15 22/11/15 18/12/15
f 19/9/16 20/12/16 24/11/16 23/10/16
f 17/10/17 19/11/17 23/12/17 21/9/17
f 18/9/18 22/10/18 24/11/18 20/12/18
o Ceiling
usemtl Mat_Metal
f 25/13/19 26/16/19 28/15/19 27/14/19
f 29/14/20 31/15/20 32/16/20 30/13/20
f 25/13/21 29/14/21 30/15/21 26/16/21
f 27/13/22 28/16/22 32/15/22 31/14/22
f 25/14/23 27/15/23 31/16/23 29/13/23
f 26/13/24 30/14/24 32/15/24 28/16/24
o Floor
usemtl Mat_Floor
f 33/17/25 34/20/25 36/19/25 35/18/25
f 37/18/26 39/19/26 40/20/26 38/17/26
f 33/17/27 37/18/27 38/19/27 34/20/27
f 35/17/28 36/20/28 40/19/28 39/18/28
f 33/18/29 35/19/29 39/20/29 37/17/29
f 34/17/30 38/18/30 40/19/30 36/20/30
o Frame_Top
usemtl Mat_Metal
f 41/21/31 42/24/31 44/23/31 43/22/31
f 45/22/32 47/23/32 48/24/32 46/21/32
f 41/21/33 45/22/33 46/23/33 42/24/33
f 43/21/34 44/24/34 48/23/34 47/22/34
f 41/22/35 43/23/35 47/24/35 45/21/35
f 42/21/36 46/22/36 48/23/36 44/24/36
o Frame_Left
usemtl Mat_Metal
f 49/25/37 50/28/37 52/27/37 51/26/37
f 53/26/38 55/27/38 56/28/38 54/25/38
f 49/25/39 53/26/39 54/27/39 50/28/39
f 51/25/40 52/28/40 56/27/40 55/26/40
f 49/26/41 51/27/41 55/28/41 53/25/41
f 50/25/42 54/26/42 56/27/42 52/28/42
o Frame_Right
usemtl Mat_Metal
f 57/29/43 58/32/43 60/31/43 59/30/43
f 61/30/44 63/31/44 64/32/44 62/29/44
f 57/29/45 61/30/45 62/31/45 58/32/45
f 59/29/46 60/32/46 64/31/46 63/30/46
f 57/30/47 59/31/47 63/32/47 61/29/47
f 58/29/48 62/30/48 64/31/48 60/32/48
o Frame_Bottom
usemtl Mat_Metal
f 65/33/49 66/36/49 68/35/49 67/34/49
f 69/34/50 71/35/50 72/36/50 70/33/50
f 65/33/51 69/34/51 70/35/51 66/36/51
f 67/33/52 68/36/52 72/35/52 71/34/52
f 65/34/53 67/35/53 71/36/53 69/33/53
f 66/33/54 70/34/54 72/35/54 68/36/54
o Door_L
usemtl Mat_Wood
f 73/37/55 74/40/55 76/39/55 75/38/55
f 77/38/56 79/39/56 80/40/56 78/37/56
f 73/37/57 77/38/57 78/39/57 74/40/57
f 75/37/58 76/40/58 80/39/58 79/38/58
f 73/38/59 75/39/59 79/40/59 77/37/59
f 74/37/60 78/38/60 80/39/60 76/40/60
o Door_R
usemtl Mat_Wood
f 81/41/61 82/44/61 84/43/61 83/42/61
f 85/42/62 87/43/62 88/44/62 86/41/62
f 81/41/63 85/42/63 86/43/63 82/44/63
f 83/41/64 84/44/64 88/43/64 87/42/64
f 81/42/65 83/43/65 87/44/65 85/41/65
f 82/41/66 86/42/66 88/43/66 84/44/66
o Door_CenterStrip
usemtl Mat_Metal
f 89/45/67 90/48/67 92/47/67 91/46/67
f 93/46/68 95/47/68 96/48/68 94/45/68
f 89/45/69 93/46/69 94/47/69 90/48/69
f 91/45/70 92/48/70 96/47/70 95/46/70
f 89/46/71 91/47/71 95/48/71 93/45/71
f 90/45/72 94/46/72 96/47/72 92/48/72
o ControlPanel_Back
usemtl Mat_Metal
f 97/49/73 98/52/73 100/51/73 99/50/73
f 101/50/74 103/51/74 104/52/74 102/49/74
f 97/49/75 101/50/75 102/51/75 98/52/75
f 99/49/76 100/52/76 104/51/76 103/50/76
f 97/50/77 99/51/77 103/52/77 101/49/77
f 98/49/78 102/50/78 104/51/78 100/52/78
o Button_0
usemtl Mat_ButtonOff
f 105/53/79 106/56/79 108/55/79 107/54/79
f 109/54/80 111/55/80 112/56/80 110/53/80
f 105/53/81 109/54/81 110/55/81 106/56/81
f 107/53/82 108/56/82 112/55/82 111/54/82
f 105/54/83 107/55/83 111/56/83 109/53/83
f 106/53/84 110/54/84 112/55/84 108/56/84
o Button_1
usemtl Mat_ButtonOff
f 113/57/85 114/60/85 116/59/85 115/58/85
f 117/58/86 119/59/86 120/60/86 118/57/86
f 113/57/87 117/58/87 118/59/87 114/60/87
f 115/57/88 116/60/88 120/59/88 119/58/88
f 113/58/89 115/59/89 119/60/89 117/57/89
f 114/57/90 118/58/90 120/59/90 116/60/90
o Button_2
usemtl Mat_ButtonOff
f 121/61/91 122/64/91 124/63/91 123/62/91
f 125/62/92 127/63/92 128/64/92 126/61/92
f 121/61/93 125/62/93 126/63/93 122/64/93
f 123/61/94 124/64/94 128/63/94 127/62/94
f 121/62/95 123/63/95 127/64/95 125/61/95
f 122/61/96 126/62/96 128/63/96 124/64/96
o Button_3
usemtl Mat_ButtonOff
f 129/65/97 130/68/97 132/67/97 131/66/97
f 133/66/98 135/67/98 136/68/98 134/65/98
f 129/65/99 133/66/99 134/67/99 130/68/99
f 131/65/100 132/68/100 136/67/100 135/66/100
f 129/66/101 131/67/101 135/68/101 133/65/101
f 130/65/102 134/66/102 136/67/102 132/68/102
o Button_4
usemtl Mat_ButtonOff
f 137/69/103 138/72/103 140/71/103 139/70/103
f 141/70/104 143/71/104 144/72/104 142/69/104
f 137/69/105 141/70/105 142/71/105 138/72/105
f 139/69/106 140/72/106 144/71/106 143/70/106
f 137/70/107 139/71/107 143/72/107 141/69/107
f 138/69/108 142/70/108 144/71/108 140/72/108
o Button_5
usemtl Mat_ButtonOff
f 145/73/109 146/76/109 148/75/109 147/74/109
f 149/74/110 151/75/110 152/76/110 150/73/110
f 145/73/111 149/74/111 150/75/111 146/76/111
f 147/73/112 148/76/112 152/75/112 151/74/112
f 145/74/113 147/75/113 151/76/113 149/73/113
f 146/73/114 150/74/114 152/75/114 148/76/114
o Button_6
usemtl Mat_ButtonOff
f 153/77/115 154/80/115 156/79/115 155/78/115
f 157/78/116 159/79/116 160/80/116 158/77/116
f 153/77/117 157/78/117 158/79/117 154/80/117
f 155/77/118 156/80/118 160/79/118 159/78/118
f 153/78/119 155/79/119 159/80/119 157/77/119
f 154/77/120 158/78/120 160/79/120 156/80/120
o Button_7
usemtl Mat_ButtonOff
f 161/81/121 162/84/121 164/83/121 163/82/121
f 165/82/122 167/83/122 168/84/122 166/81/122
f 161/81/123 165/82/123 166/83/123 162/84/123
f 163/81/124 164/84/124 168/83/124 167/82/124
f 161/82/125 163/83/125 167/84/125 165/81/125
f 162/81/126 166/82/126 168/83/126 164/84/126
o Button_8
usemtl Mat_ButtonOff
f 169/85/127 170/88/127 172/87/127 171/86/127
f 173/86/128 175/87/128 176/88/128 174/85/128
f 169/85/129 173/86/129 174/87/129 170/88/129
f 171/85/130 172/88/130 176/87/130 175/86/130
f 169/86/131 171/87/131 175/88/131 173/85/131
f 170/85/132 174/86/132 176/87/132 172/88/132
o Button_9
usemtl Mat_ButtonOff
f 177/89/133 178/92/133 180/91/133 179/90/133
f 181/90/134 183/91/134 184/92/134 182/89/134
f 177/89/135 181/90/135 182/91/135 178/92/135
f 179/89/136 180/92/136 184/91/136 183/90/136
f 177/90/137 179/91/137 183/92/137 181/89/137
f 178/89/138 182/90/138 184/91/138 180/92/138
